<?xml version="1.0" encoding="iso-8859-1"?>
<!-- Uploaded to: SVG Repo, www.svgrepo.com, Generator: SVG Repo Mixer Tools -->
<svg height="800px" width="800px" version="1.1" id="Layer_1" xmlns="http://www.w3.org/2000/svg" xmlns:xlink="http://www.w3.org/1999/xlink" 
	 viewBox="0 0 512 512" xml:space="preserve">
<g>
	<path style="fill:#E6E6E6;" d="M287.58,170.831c17.965-30.082,29.991-78.117,29.991-100.593c0-34.068-27.615-61.672-61.672-61.672
		c-34.068,0-61.683,27.604-61.683,61.672c0,22.476,12.026,70.511,29.991,100.593"/>
	<path style="fill:#E6E6E6;" d="M338.528,218.182c33.965-8.565,76.45-34.045,92.336-49.931c24.075-24.086,24.075-63.133,0-87.22
		c-24.086-24.086-63.145-24.086-87.231,0c-15.898,15.898-41.366,58.371-49.92,92.348"/>
	<path style="fill:#E6E6E6;" d="M341.063,287.688c30.082,17.965,78.117,29.979,100.593,29.979c34.056,0,61.672-27.604,61.672-61.672
		c0-34.056-27.615-61.672-61.672-61.672c-22.476,0-70.511,12.026-100.593,29.991"/>
	<path style="fill:#E6E6E6;" d="M338.528,293.809c33.965,8.566,76.45,34.045,92.336,49.931c24.075,24.086,24.075,63.133,0,87.22
		c-24.086,24.086-63.145,24.086-87.231,0c-15.886-15.886-41.354-58.36-49.92-92.336"/>
	<path style="fill:#E6E6E6;" d="M170.724,287.688c-30.082,17.965-78.117,29.979-100.593,29.979
		c-34.056,0-61.672-27.604-61.672-61.672c0-34.056,27.615-61.672,61.672-61.672c22.476,0,70.511,12.026,100.593,29.979"/>
	<path style="fill:#E6E6E6;" d="M218.086,173.367c-8.566-33.965-34.045-76.45-49.931-92.336c-24.086-24.086-63.133-24.086-87.22,0
		s-24.086,63.133,0,87.22c15.886,15.886,58.36,41.354,92.325,49.931"/>
	<path style="fill:#E6E6E6;" d="M218.086,338.635c-8.577,33.965-34.045,76.439-49.931,92.325c-24.086,24.086-63.133,24.086-87.22,0
		s-24.086-63.133,0-87.22c15.886-15.886,58.36-41.354,92.325-49.931"/>
	<path style="fill:#E6E6E6;" d="M287.592,341.171c17.953,30.082,29.979,78.117,29.979,100.582c0,34.068-27.615,61.683-61.672,61.683
		c-34.068,0-61.683-27.615-61.683-61.683c0-22.464,12.026-70.5,29.979-100.582"/>
</g>
<circle style="fill:#FCC447;" cx="255.9" cy="255.994" r="90.863"/>
<circle style="fill:#FC675B;" cx="255.9" cy="255.994" r="53.689"/>
<path d="M255.999,317.656c34,0,61.661-27.661,61.661-61.66c0-13.296-4.166-25.959-12.05-36.623
	c-2.813-3.804-8.174-4.608-11.98-1.795c-3.803,2.812-4.607,8.176-1.795,11.979c5.688,7.694,8.695,16.836,8.695,26.439
	c0,24.554-19.976,44.529-44.53,44.529s-44.529-19.976-44.529-44.529s19.976-44.53,44.529-44.53c7.241,0,14.142,1.68,20.514,4.994
	c4.198,2.182,9.367,0.55,11.552-3.647c2.182-4.197,0.549-9.37-3.647-11.552c-8.714-4.532-18.54-6.927-28.419-6.927
	c-34,0-61.66,27.661-61.66,61.661S221.998,317.656,255.999,317.656z"/>
<path d="M441.759,185.757c-5.877,0-13.113,0.72-21.129,2.048c6.61-4.732,12.238-9.342,16.397-13.5
	c27.373-27.386,27.373-71.944-0.001-99.332c-27.39-27.389-71.956-27.389-99.344,0c-4.154,4.154-8.76,9.775-13.484,16.375
	c1.326-8.008,2.044-15.239,2.044-21.11C326.242,31.508,294.733,0,256.005,0c-38.735,0-70.249,31.508-70.249,70.237
	c0,5.871,0.718,13.101,2.044,21.109c-4.726-6.6-9.331-12.22-13.483-16.374c-27.386-27.386-71.947-27.387-99.334,0
	c-4.992,4.992-9.181,10.66-12.452,16.847c-2.211,4.182-0.613,9.365,3.569,11.576c4.182,2.211,9.365,0.613,11.576-3.569
	c2.471-4.673,5.641-8.96,9.421-12.741c10.032-10.031,23.368-15.556,37.553-15.556s27.522,5.524,37.553,15.556
	c13.274,13.274,36.026,49.593,45.855,81.835c-16.438,9.086-30.042,22.691-39.128,39.127c-32.249-9.837-68.565-32.588-81.833-45.855
	c-9.71-9.71-15.177-22.543-15.541-36.045c-0.116-4.298-3.33-7.872-7.603-8.351l0,0c-5.188-0.581-9.661,3.574-9.524,8.793
	c0.469,17.87,7.701,34.862,20.555,47.717c4.157,4.157,9.788,8.769,16.399,13.502c-8.023-1.329-15.266-2.05-21.147-2.05
	c-38.729,0-70.237,31.508-70.237,70.237s31.508,70.237,70.237,70.237c5.882,0,13.122-0.72,21.144-2.048
	c-6.611,4.732-12.24,9.342-16.397,13.499c-27.386,27.386-27.386,71.947,0,99.332c13.266,13.267,30.905,20.574,49.666,20.574
	s36.4-7.307,49.666-20.574c4.153-4.153,8.757-9.774,13.484-16.376c-1.326,8.01-2.045,15.241-2.045,21.112
	c0,38.735,31.513,70.249,70.249,70.249c38.729,0,70.237-31.513,70.237-70.249c0-5.871-0.718-13.103-2.045-21.113
	c4.726,6.602,9.332,12.224,13.484,16.377c13.267,13.267,30.908,20.574,49.672,20.574c18.765,0,36.406-7.307,49.674-20.575
	c27.373-27.386,27.373-71.945-0.001-99.331c-4.157-4.157-9.784-8.767-16.392-13.497c8.014,1.326,15.249,2.045,21.126,2.045
	c4.732,0,8.565-3.835,8.565-8.565s-3.834-8.565-8.565-8.565c-18.769,0-60.52-9.587-90.263-25.425
	c2.553-8.79,3.925-18.078,3.925-27.68c0-9.6-1.373-18.884-3.923-27.673c29.751-15.845,71.499-25.434,90.261-25.434
	c29.284,0,53.106,23.824,53.106,53.106c0,21.394-12.732,40.604-32.437,48.938c-4.357,1.842-6.397,6.868-4.552,11.225
	c1.382,3.267,4.553,5.232,7.892,5.232c1.114,0,2.244-0.218,3.333-0.678c26.059-11.02,42.897-36.423,42.897-64.715
	C511.997,217.266,480.488,185.757,441.759,185.757z M349.793,87.086c20.708-20.71,54.406-20.71,75.115-0.001
	c20.698,20.708,20.698,54.402,0.001,75.108c-13.274,13.274-49.597,36.029-81.839,45.856c-9.086-16.434-22.687-30.038-39.121-39.124
	C313.765,136.686,336.515,100.364,349.793,87.086z M256.002,17.131c29.284,0,53.106,23.824,53.106,53.106
	c0,18.761-9.59,60.508-25.434,90.26c-8.789-2.551-18.075-3.924-27.677-3.924c-9.602,0-18.89,1.373-27.68,3.925
	c-15.844-29.752-25.434-71.499-25.434-90.261C202.885,40.955,226.713,17.131,256.002,17.131z M255.999,173.704
	c45.375,0,82.292,36.916,82.292,82.292s-36.916,82.292-82.292,82.292s-82.292-36.916-82.292-82.292
	C173.707,210.62,210.622,173.704,255.999,173.704z M17.128,255.994c0-29.283,23.824-53.106,53.106-53.106
	c18.758,0,60.509,9.588,90.267,25.428c-2.551,8.79-3.925,18.077-3.925,27.679c0,9.602,1.373,18.889,3.925,27.679
	C130.759,299.514,89.004,309.1,70.234,309.1C40.951,309.1,17.128,285.277,17.128,255.994z M162.201,424.903
	c-10.032,10.032-23.368,15.556-37.553,15.556s-27.522-5.524-37.553-15.556c-20.707-20.707-20.707-54.399,0-75.106
	c13.267-13.267,49.583-36.018,81.831-45.855c9.087,16.438,22.693,30.042,39.131,39.129
	C198.219,375.319,175.468,411.635,162.201,424.903z M256.002,494.869c-29.289,0-53.118-23.828-53.118-53.118
	c0-18.755,9.589-60.501,25.43-90.26c8.792,2.552,18.08,3.926,27.684,3.926c9.602,0,18.89-1.373,27.68-3.925
	c15.842,29.758,25.43,71.505,25.43,90.259C309.108,471.041,285.286,494.869,256.002,494.869z M424.911,424.903
	c-10.031,10.032-23.37,15.556-37.559,15.556c-14.188,0-27.527-5.524-37.559-15.556c-13.271-13.271-36.018-49.59-45.845-81.836
	c16.435-9.087,30.038-22.691,39.124-39.126c32.243,9.828,68.564,32.582,81.837,45.855
	C445.607,370.502,445.607,404.196,424.911,424.903z"/>
</svg>